<?xml version="1.0" encoding="UTF-8"?>
<svg id="Layer_2" data-name="Layer 2" xmlns="http://www.w3.org/2000/svg" viewBox="0 0 275.86 100">
  <defs>
    <style>
      .cls-1 {
        fill: #243670;
        stroke-width: 0px;
      }
    </style>
  </defs>
  <g id="Layer_1-2" data-name="Layer 1">
    <g>
      <path class="cls-1" d="M257.09,15.67c0,1.93.07,3.86-.04,5.78-.13.63-.46,1.19-.94,1.62-2.51,2.58-5.05,5.12-7.62,7.61-.32.24-.67.42-1.05.54l.38.48h17.8l.16.28c-1.52,1.44-2.98,2.92-4.56,4.27-.51.26-1.08.37-1.65.31h-11.88l12.75,12.63-.22.29c-2.05,0-4.1.05-6.15,0-.45,0-.9-.52-1.3-.9-2.48-2.44-4.94-4.9-7.4-7.38-.29-.36-.54-.76-.75-1.17l-.46.3v17.59c-1.52-1.38-3.08-2.69-4.49-4.18-.28-.5-.39-1.07-.31-1.63v-15.52h-21.55l-.14-.27c1.49-1.42,2.94-2.88,4.49-4.23.5-.29,1.07-.41,1.64-.34h10.78c.34,0,.68,0,1.04-.05l-12.57-12.57.2-.41h2.69c4.49.07,3.21-.55,6.43,2.63,2.02,1.99,4.02,4.01,6.03,6.01.24.25.5.48.96.9V10.24c1.51,1.4,3.02,2.69,4.38,4.16.33.54.48,1.17.42,1.8v10.67c0,.38.04.75.07,1.33l12.62-12.79.27.27Z"/>
      <g>
        <path class="cls-1" d="M0,48.92c1.39,0,2.78-.1,4.17,0,.24,0,.66.52.66.81.05,2.78,0,5.57-.09,8.44-1.64-1.6-3.47-3.01-4.73-4.94v-4.31Z"/>
        <path class="cls-1" d="M113.55,50.1v3.04l-1.07-.8c-5.57-4.21-13.04-4.89-19.28-1.75-5.85,2.71-8.49,7.94-8.92,14.22-.42,4.42.92,8.82,3.73,12.26,5.79,7.09,17.68,7.49,24.54,2.1.24-.18.49-.34.74-.51l.31.11c-.13,2.11-.11,4.22-.4,6.29-.29,2.78-1.95,5.22-4.44,6.5-1.93.99-4.06,1.49-6.22,1.48-4.75.06-8.83-1.19-10.95-5.99-.14-.23-.37-.38-.64-.42h-4.93c-.02.14-.02.28,0,.41.07.35.17.7.29,1.03,1.42,3.84,4.49,6.83,8.37,8.14,4.19,1.5,8.73,1.74,13.05.67,4.38-1.05,7.73-3.54,9.46-7.86.8-2.16,1.18-4.45,1.11-6.75v-32.17h-4.76ZM113,70.28c-.84,3.82-3.84,6.8-7.67,7.61-4.38,1.1-8.56.8-12.09-2.23-2.95-2.52-3.9-6.02-3.9-9.79-.02-4.22,1.28-7.91,4.78-10.44,3.8-2.77,8.09-2.9,12.28-1.19s6.33,5.12,6.98,9.52c.32,2.17.19,4.39-.39,6.51Z"/>
        <path class="cls-1" d="M163.55,54.78v-5.87h4.72v32.65h-4.62v-4.49c-.27.13-.41.15-.48.23-3.15,4.07-7.51,5.48-12.42,5.53-7.16.19-13.57-4.42-15.68-11.27-2.45-7.75.49-17.77,8.98-21.44,6.08-2.61,13.65-1.38,17.9,2.89.51.52.96,1.07,1.61,1.77ZM151.56,53.39c-7.27,0-12.06,5.17-12.27,12.9-.17,6.2,5.49,12.01,12.04,12.04,6.63.1,12.1-5.15,12.28-11.77-.04-7.89-4.76-13.13-12.06-13.16v-.02Z"/>
        <path class="cls-1" d="M79.14,68.35c-.29,5.12-3.18,9.73-7.67,12.22-8.84,5.25-23.41,1.88-24.93-12.49-.46-3.63.13-7.31,1.69-10.61,2.81-5.81,8.81-9.11,15.6-8.63,9.44.69,15.38,7.33,15.31,19.51ZM51.3,66.39c.1.71.19,1.98.47,3.19,1.22,5.2,5.03,8.49,10.17,8.85,4.99.55,9.72-2.4,11.4-7.13,1.08-2.87,1.28-5.99.59-8.98-1.21-6.18-7.2-10.21-13.39-9-1.41.28-2.76.82-3.97,1.6-3.86,2.55-5.21,6.46-5.32,11.47h.04Z"/>
        <path class="cls-1" d="M40.15,58.45h-4.24c-.25-.07-.45-.25-.54-.49-.72-3.06-2.84-4.44-5.77-4.81-2.17-.36-4.39-.17-6.47.54-1.64.48-2.8,1.94-2.89,3.65-.32,1.72.68,3.4,2.34,3.94,2.83.98,5.76,1.71,8.63,2.58,1.77.45,3.5,1.02,5.19,1.71,2.79,1.27,4.8,3.23,5,6.56.22,3.59-.9,6.56-4.01,8.58-4.49,2.89-14.3,3.21-19-1.13-2.18-1.94-3.52-4.66-3.72-7.58h4.35c.25.07.44.26.53.5.74,3.82,3.35,5.55,6.91,6.06,2.42.38,4.9.1,7.18-.81,2.29-.74,3.56-3.2,2.82-5.49-.02-.05-.04-.11-.05-.16-.31-.91-.95-1.67-1.8-2.13-2.44-1.01-4.98-1.8-7.51-2.55-2.05-.65-4.19-1.02-6.17-1.8-2.89-1.17-5.17-3.03-5.39-6.47-.35-4.81,1.8-8.08,6.46-9.53,3.31-1.06,6.85-1.13,10.2-.2,4.45,1.26,7.55,4.74,7.94,9.02Z"/>
        <path class="cls-1" d="M173.31,72h4.37c.18,0,.47.32.51.53.75,3.76,3.3,5.5,6.83,6.03,2.53.42,5.13.1,7.49-.9,2.17-.87,3.31-3.26,2.61-5.5-.2-1.01-.9-1.85-1.86-2.24-2.48-.9-4.99-1.72-7.52-2.51-2.01-.63-4.12-1.01-6.07-1.8-2.9-1.15-5.21-2.98-5.48-6.42-.38-4.92,1.85-8.23,6.58-9.64,3.2-1.03,6.64-1.09,9.88-.18,3.84,1.15,6.78,3.39,7.89,7.49.12.45.17.9.29,1.54h-4.35c-.22-.05-.4-.22-.48-.43-.71-3.17-2.93-4.49-5.93-4.9-2.07-.31-4.18-.13-6.17.5-1.72.45-2.96,1.97-3.05,3.74-.3,1.76.76,3.46,2.47,3.97,2.8.96,5.7,1.66,8.54,2.52,1.86.51,3.69,1.13,5.48,1.87,6.99,3.13,5.39,12.19.75,15.01s-14.52,3.21-19.21-1.21c-2.11-1.94-3.4-4.62-3.59-7.48Z"/>
        <path class="cls-1" d="M209.74,72.13c1.22,6.01,6.33,7,10.69,6.47,1.42-.18,2.8-.55,4.12-1.1,1.54-.65,2.51-2.19,2.43-3.85.15-1.62-.74-3.16-2.23-3.83-2.63-1.42-5.56-1.86-8.4-2.61-2.12-.51-4.19-1.22-6.19-2.1-6.54-3.08-4.88-11.67-.49-14.29,3.83-2.28,12.79-3.33,17.72,1.36,1.77,1.65,2.89,3.88,3.14,6.29h-4.39c-.16,0-.41-.29-.45-.48-.67-3.1-2.82-4.44-5.74-4.83-2.14-.34-4.33-.17-6.38.49-1.72.47-2.94,2-3.02,3.79-.26,1.72.78,3.37,2.44,3.88,2.84.97,5.77,1.66,8.64,2.56,2.07.57,4.09,1.31,6.03,2.22,6.19,3.13,4.71,11.67.44,14.37-2.92,1.74-6.29,2.57-9.68,2.38-3.26.1-6.46-.89-9.11-2.8-2.48-1.92-4.06-4.79-4.35-7.92l4.76.02Z"/>
        <path class="cls-1" d="M129.22,82.8h-4.61v-46.08h4.61v46.08Z"/>
        <path class="cls-1" d="M5,82.8v-23.81c1.45,1.37,2.91,2.69,4.31,4.14.25.35.38.77.36,1.2v17.96c-.02.16-.05.32-.09.48l-4.58.03Z"/>
      </g>
      <g>
        <path class="cls-1" d="M239.22,0v9.33l-.25.14-1.63-1.58-.27-.31c-3.16-3.2-2.69-2.16-2.69-6.52,0-.36,0-.71-.06-1.07h4.91Z"/>
        <path class="cls-1" d="M275.86,31.68h-9.56c.31-.39.48-.62.68-.83s.4-.41.6-.62q3.41-3.44,8.28-3.3v4.74Z"/>
        <path class="cls-1" d="M257.2,14.86v-5.7c.04-.5.24-.97.57-1.35.9-.96,1.88-1.8,2.86-2.77l3.1,3.25-6.53,6.57Z"/>
        <path class="cls-1" d="M215.74,12.01l6.45,6.48c-1.96,0-4.01.08-6.05-.05-.57,0-1.13-.69-1.64-1.12-.74-.62-1.42-1.3-2.17-1.99l3.42-3.31Z"/>
        <path class="cls-1" d="M207.61,41.31v-4.58h9.32c-.23.28-.4.51-.6.72-.65.55-1.25,1.15-1.8,1.8-1.77,2.61-4.31,2.25-6.92,2.07Z"/>
        <path class="cls-1" d="M248.9,68.25h-4.65v-9.56c1.57,1.64,3.03,3.05,4.31,4.6.37.44.3,1.28.33,1.95.04.95,0,1.92,0,3.02Z"/>
        <path class="cls-1" d="M270.91,53.04c-1.19,1.18-2.24,2.24-3.59,3.59l-6.56-6.77c2.35,0,4.4-.06,6.45.04.48,0,.94.58,1.36.96.82.66,1.54,1.4,2.33,2.17Z"/>
      </g>
      <g>
        <path class="cls-1" d="M138.56,96.58c-.44-.2-.79-.48-1.04-.84-.25-.36-.38-.77-.39-1.24h1.18c.04.4.21.74.49,1.02.29.28.71.41,1.26.41s.95-.13,1.25-.4c.3-.27.46-.61.46-1.03,0-.33-.09-.59-.27-.8s-.4-.36-.67-.47c-.27-.11-.63-.22-1.09-.34-.56-.15-1.01-.29-1.35-.44-.34-.15-.63-.38-.87-.7-.24-.32-.36-.74-.36-1.27,0-.47.12-.88.35-1.24.24-.36.57-.64.99-.84.43-.2.92-.29,1.47-.29.8,0,1.45.2,1.96.6s.79.94.86,1.6h-1.22c-.04-.33-.21-.62-.51-.87s-.7-.38-1.19-.38c-.46,0-.84.12-1.13.36-.29.24-.44.58-.44,1.02,0,.31.09.57.26.76.17.2.39.35.65.45s.62.22,1.08.35c.56.16,1.01.31,1.35.46.34.15.63.39.88.7.24.32.37.75.37,1.29,0,.42-.11.81-.33,1.18-.22.37-.54.67-.98.9-.43.23-.94.34-1.52.34s-1.06-.1-1.51-.3Z"/>
        <path class="cls-1" d="M149.21,90.25c.41.22.73.54.96.98.23.44.35.96.35,1.59v3.98h-1.1v-3.82c0-.67-.17-1.19-.5-1.55-.33-.36-.79-.54-1.37-.54s-1.05.18-1.4.55c-.34.37-.52.91-.52,1.61v3.73h-1.11v-9.11h1.11v3.33c.22-.34.52-.61.91-.8.39-.19.82-.28,1.3-.28.5,0,.96.11,1.37.33Z"/>
        <path class="cls-1" d="M152.33,91.58c.28-.52.66-.93,1.14-1.21s1.02-.43,1.62-.43,1.09.13,1.52.38c.43.25.75.57.96.96v-1.23h1.12v6.75h-1.12v-1.26c-.22.39-.55.72-.98.98-.44.26-.94.39-1.52.39s-1.13-.15-1.61-.44c-.48-.3-.86-.71-1.13-1.24-.28-.53-.41-1.14-.41-1.82s.14-1.29.41-1.82ZM157.27,92.08c-.2-.38-.48-.67-.82-.87-.35-.2-.73-.3-1.14-.3s-.79.1-1.13.3c-.34.2-.61.48-.82.86-.2.38-.3.82-.3,1.33s.1.97.3,1.35.48.67.82.88.72.3,1.13.3.79-.1,1.14-.3c.34-.2.62-.49.82-.88.2-.38.3-.83.3-1.34s-.1-.95-.3-1.33Z"/>
        <path class="cls-1" d="M162.66,90.33c.43-.26.94-.39,1.52-.39s1.13.14,1.62.43.86.69,1.14,1.21c.28.52.41,1.13.41,1.82s-.14,1.29-.41,1.82c-.28.53-.66.95-1.14,1.24-.48.29-1.02.44-1.62.44s-1.07-.13-1.51-.39c-.43-.26-.77-.58-.99-.97v4.45h-1.11v-9.95h1.11v1.24c.22-.39.55-.71.98-.97ZM165.91,92.07c-.2-.38-.48-.67-.82-.86-.35-.2-.73-.3-1.14-.3s-.78.1-1.13.3-.62.49-.83.87-.31.82-.31,1.32.1.95.31,1.34.48.67.83.88.72.3,1.13.3.79-.1,1.14-.3.62-.49.82-.88c.2-.38.3-.83.3-1.35s-.1-.95-.3-1.33Z"/>
        <path class="cls-1" d="M174.88,93.84h-5.34c.04.67.27,1.18.68,1.56.41.37.91.56,1.49.56.48,0,.88-.11,1.2-.34s.55-.53.68-.91h1.19c-.18.65-.54,1.18-1.07,1.58-.54.41-1.2.61-2,.61-.63,0-1.2-.14-1.7-.43-.5-.29-.89-.7-1.18-1.23-.29-.53-.43-1.14-.43-1.84s.14-1.31.41-1.83.67-.93,1.17-1.21,1.08-.42,1.73-.42,1.2.14,1.68.42c.49.28.86.66,1.13,1.15.26.49.4,1.04.4,1.66,0,.21-.01.44-.04.68ZM173.49,91.83c-.19-.31-.44-.54-.76-.7-.32-.16-.68-.24-1.07-.24-.56,0-1.04.18-1.43.54-.39.36-.62.86-.68,1.5h4.22c0-.43-.09-.79-.28-1.1Z"/>
        <path class="cls-1" d="M185.58,88.21l-2.77,5.34v3.24h-1.11v-3.24l-2.78-5.34h1.23l2.1,4.35,2.1-4.35h1.23Z"/>
        <path class="cls-1" d="M187.97,96.48c-.51-.29-.91-.7-1.2-1.23-.29-.53-.43-1.14-.43-1.84s.15-1.3.45-1.83c.3-.53.7-.94,1.21-1.22.51-.28,1.08-.42,1.72-.42s1.21.14,1.72.42c.51.28.92.69,1.21,1.21s.45,1.14.45,1.83-.15,1.31-.46,1.84c-.3.53-.72.94-1.24,1.23-.52.29-1.1.43-1.73.43s-1.19-.14-1.7-.43ZM190.79,95.64c.35-.19.63-.47.85-.85.22-.38.32-.84.32-1.38s-.11-1-.32-1.38c-.21-.38-.49-.66-.83-.84-.34-.18-.71-.28-1.11-.28s-.78.09-1.12.28c-.34.18-.61.47-.81.84-.2.38-.3.84-.3,1.38s.1,1.01.3,1.39.47.66.8.84.7.28,1.1.28.77-.09,1.12-.28Z"/>
        <path class="cls-1" d="M200.48,90.05v6.75h-1.11v-1c-.21.34-.51.61-.88.81-.38.19-.79.29-1.25.29-.52,0-.99-.11-1.4-.33-.42-.22-.74-.54-.98-.98-.24-.43-.36-.96-.36-1.59v-3.95h1.1v3.81c0,.67.17,1.18.5,1.53.33.36.79.54,1.37.54s1.06-.19,1.4-.55c.34-.37.51-.91.51-1.61v-3.71h1.11Z"/>
        <path class="cls-1" d="M204.31,90.25c.36-.21.8-.32,1.32-.32v1.16h-.29c-1.24,0-1.87.68-1.87,2.04v3.67h-1.11v-6.75h1.11v1.1c.2-.39.47-.69.83-.9Z"/>
        <path class="cls-1" d="M220.85,88.21l-2.46,8.58h-1.24l-1.98-6.91-2.05,6.91h-1.23s-2.38-8.58-2.38-8.58h1.18l1.85,7.28,2.05-7.28h1.24l1.95,7.25,1.87-7.25h1.2Z"/>
        <path class="cls-1" d="M222.1,88.73c-.15-.15-.22-.33-.22-.54s.07-.39.22-.54.33-.22.54-.22.38.07.52.22.21.33.21.54-.07.39-.21.54c-.14.15-.32.22-.52.22s-.39-.07-.54-.22ZM223.18,90.05v6.75h-1.11v-6.75h1.11Z"/>
        <path class="cls-1" d="M230.3,90.67c.5.5.76,1.21.76,2.15v3.98h-1.1v-3.82c0-.67-.17-1.19-.5-1.55-.33-.36-.79-.54-1.37-.54s-1.05.18-1.4.55c-.34.37-.52.91-.52,1.61v3.73h-1.11v-6.75h1.11v.96c.22-.34.52-.61.9-.8.38-.19.79-.28,1.25-.28.81,0,1.47.25,1.98.75Z"/>
      </g>
    </g>
  </g>
</svg>